<svg width="33" height="32" viewBox="0 0 33 32" fill="#1C2B33" xmlns="http://www.w3.org/2000/svg">
<path d="M16.3972 0C14.2439 0 12.1117 0.424127 10.1223 1.24817C8.13288 2.0722 6.32526 3.28001 4.80264 4.80264C1.72756 7.87772 0 12.0484 0 16.3972C0 23.6448 4.70601 29.7938 11.2157 31.9746C12.0356 32.1058 12.2979 31.5975 12.2979 31.1547C12.2979 30.7776 12.2979 29.7446 12.2979 28.3836C7.75589 29.3674 6.78845 26.1864 6.78845 26.1864C6.03418 24.2843 4.96836 23.776 4.96836 23.776C3.47621 22.7594 5.08314 22.7922 5.08314 22.7922C6.72287 22.9069 7.59192 24.4811 7.59192 24.4811C9.01848 26.9734 11.4289 26.2356 12.3635 25.842C12.5111 24.7762 12.9374 24.0547 13.3965 23.6448C9.75635 23.2349 5.9358 21.8247 5.9358 15.5774C5.9358 13.7573 6.55889 12.2979 7.62471 11.1337C7.46074 10.7238 6.88684 9.01848 7.78869 6.80485C7.78869 6.80485 9.16605 6.36213 12.2979 8.47737C13.5933 8.11663 15.0035 7.93626 16.3972 7.93626C17.791 7.93626 19.2012 8.11663 20.4965 8.47737C23.6284 6.36213 25.0058 6.80485 25.0058 6.80485C25.9076 9.01848 25.3337 10.7238 25.1698 11.1337C26.2356 12.2979 26.8587 13.7573 26.8587 15.5774C26.8587 21.8411 23.0217 23.2185 19.3651 23.6284C19.9554 24.1367 20.4965 25.137 20.4965 26.6619C20.4965 28.8591 20.4965 30.63 20.4965 31.1547C20.4965 31.5975 20.7589 32.1222 21.5952 31.9746C28.1049 29.7774 32.7945 23.6448 32.7945 16.3972C32.7945 14.2439 32.3703 12.1117 31.5463 10.1223C30.7223 8.13288 29.5145 6.32526 27.9918 4.80264C26.4692 3.28001 24.6616 2.0722 22.6722 1.24817C20.6828 0.424127 18.5505 0 16.3972 0Z"/>
</svg>
