<svg width="78" height="12" viewBox="0 0 78 12" fill="none" xmlns="http://www.w3.org/2000/svg">
<path d="M21.9036 0.361542H24.1445L27.9759 7.30128L31.8072 0.361542H34.0482V11.7833H32.1687V3.03625L28.7711 9.10852H27.0361L23.6385 3.03625V11.7833H21.9036V0.361542Z" fill="black"/>
<path d="M40.0481 12C39.1806 12 38.4577 11.7832 37.8071 11.4217C37.1565 11.0603 36.6505 10.482 36.289 9.83136C35.9276 9.18076 35.7107 8.38558 35.7107 7.5181C35.7107 6.65063 35.8553 5.85545 36.2167 5.20484C36.5782 4.55424 37.0842 3.97593 37.6625 3.61448C38.3131 3.25303 39.036 3.03616 39.8312 3.03616C40.6264 3.03616 41.3493 3.25303 41.9276 3.61448C42.5059 3.97593 42.9396 4.55424 43.3011 5.20484C43.5902 5.92774 43.8071 6.72292 43.8071 7.66268V8.16871H37.5179C37.6625 8.8916 37.8794 9.39763 38.3854 9.83136C38.8191 10.2651 39.3974 10.4097 40.1203 10.4097C40.6987 10.4097 41.1324 10.3374 41.5661 10.1928C41.9999 10.0482 42.3613 9.75907 42.7228 9.46992L43.7348 10.6988C42.7228 11.5663 41.4938 12 40.0481 12ZM41.4216 5.20484C41.0601 4.8434 40.5541 4.62653 39.9035 4.62653C39.3252 4.62653 38.7468 4.8434 38.3854 5.20484C37.9517 5.63858 37.7348 6.14461 37.5902 6.8675H42.0722C41.9999 6.14461 41.783 5.63858 41.4216 5.20484Z" fill="black"/>
<path d="M46.1204 4.77111H44.3855V3.25303H46.1204V0.7229H47.9277V3.25303H50.5301V4.77111H47.9277V8.60248C47.9277 9.25308 48.0723 9.68682 48.2891 9.97598C48.506 10.2651 48.8674 10.4097 49.4458 10.4097C49.6626 10.4097 49.8795 10.4097 50.0241 10.4097C50.1686 10.4097 50.3855 10.3374 50.5301 10.3374V11.7832C50.3132 11.8555 50.0964 11.9278 49.8795 11.9278C49.5903 12.0001 49.3735 12 49.0843 12C47.1325 12 46.1927 10.9157 46.1927 8.81935V4.77111H46.1204Z" fill="black"/>
<path d="M59.7833 11.7831H58.0483V10.5542C57.7592 10.9879 57.3255 11.3494 56.8917 11.5663C56.3857 11.7832 55.8797 11.9278 55.2291 11.9278C54.5062 11.9278 53.7833 11.7109 53.205 11.3494C52.6266 10.988 52.1929 10.4096 51.8315 9.75907C51.47 9.10847 51.3254 8.31321 51.3254 7.44574C51.3254 6.57831 51.47 5.78312 51.8315 5.13252C52.1929 4.48191 52.6266 3.9036 53.205 3.54215C53.7833 3.1807 54.5062 2.96384 55.2291 2.96384C55.8074 2.96384 56.3134 3.10842 56.8194 3.32528C57.2532 3.54215 57.6869 3.9036 57.9761 4.26505V3.1807H59.711V11.7831H59.7833ZM57.9761 6.28915C57.7592 5.78312 57.47 5.42168 57.0363 5.13252C56.6026 4.84336 56.1688 4.69878 55.5905 4.69878C54.7953 4.69878 54.217 4.98794 53.7833 5.49396C53.3495 5.99999 53.1327 6.72292 53.1327 7.59039C53.1327 8.45787 53.3495 9.18076 53.7833 9.68671C54.217 10.1927 54.7953 10.482 55.5905 10.482C56.1688 10.482 56.6026 10.3373 57.0363 10.0482C57.47 9.75907 57.7592 9.39755 57.9761 8.89153V6.28915Z" fill="black"/>
<path d="M63.1809 11.7833C63.5424 10.5544 63.9761 9.25317 64.4821 7.87967C64.9881 6.50614 65.4942 5.20493 66.0725 3.97601C66.6508 2.6748 67.1568 1.44588 67.7351 0.361542H69.9761C70.5544 1.51817 71.0605 2.6748 71.6388 3.97601C72.217 5.27722 72.723 6.57843 73.1568 7.87967C73.6628 9.18088 74.0965 10.4821 74.458 11.7833H72.4339C72.2893 11.3496 72.1447 10.8435 72.0001 10.3375C71.8556 9.83148 71.7111 9.32539 71.4942 8.81943H66.1448C66.0002 9.32539 65.7833 9.83148 65.6387 10.3375C65.4942 10.8435 65.3496 11.2773 65.205 11.7833H63.1809ZM68.8195 2.16878C68.458 2.96396 68.0966 3.75914 67.7351 4.62661C67.3737 5.49409 67.0122 6.36156 66.7231 7.30128H70.9159C70.5544 6.43385 70.2653 5.56638 69.9038 4.62661C69.4701 3.75914 69.1809 2.89167 68.8195 2.16878Z" fill="black"/>
<path d="M75.8313 0.361542H77.7108V11.7833H75.8313V0.361542Z" fill="black"/>
<path d="M5.18884 0C5.18303 0 5.17725 2.05371e-05 5.17145 5.05372e-05L5.14771 1.96148C5.15314 1.96143 5.15857 1.96138 5.16401 1.96138H5.16402C6.45505 1.96138 7.45645 2.97931 9.633 6.64551L9.76568 6.8687L9.77436 6.88331L10.9928 5.05519L10.9843 5.04107C10.6976 4.57472 10.4221 4.14565 10.1579 3.75384C9.85154 3.29988 9.55854 2.89434 9.27417 2.53226C7.83431 0.698955 6.62986 0 5.18884 0Z" fill="url(#paint0_linear_221_349)"/>
<path d="M5.17165 5.05372e-05C3.72363 0.00750015 2.44348 0.943843 1.5191 2.37664C1.5164 2.38084 1.51369 2.38504 1.51099 2.38925L3.20779 3.31279C3.21054 3.30862 3.21331 3.30444 3.21608 3.30028C3.75586 2.48756 4.4276 1.9692 5.14791 1.96148C5.15334 1.96143 5.15877 1.96138 5.16421 1.96138L5.18903 0C5.18323 0 5.17745 2.05371e-05 5.17165 5.05372e-05Z" fill="url(#paint1_linear_221_349)"/>
<path d="M1.51911 2.37656C1.51641 2.38075 1.5137 2.38495 1.51099 2.38916C0.903575 3.33471 0.450763 4.49502 0.20605 5.74677C0.20499 5.75218 0.203934 5.75761 0.202881 5.76304L2.10917 6.21282C2.11016 6.20739 2.11116 6.20195 2.11217 6.19651C2.31593 5.09644 2.70386 4.07615 3.20779 3.31271C3.21054 3.30853 3.21331 3.30435 3.21607 3.30019L1.51911 2.37656Z" fill="url(#paint2_linear_221_349)"/>
<path d="M2.11206 6.1966L0.205933 5.74686C0.204873 5.75227 0.203817 5.7577 0.202764 5.76313C0.0693252 6.45153 0.00143812 7.15104 1.38203e-05 7.85226C2.62025e-06 7.85793 -1.76335e-06 7.8636 6.3665e-07 7.86926L1.95497 8.04416C1.95482 8.03847 1.95466 8.03285 1.95452 8.02714C1.95356 7.98647 1.95307 7.94525 1.95306 7.90347C1.95403 7.3364 2.00624 6.77058 2.10905 6.21291C2.11005 6.20748 2.11105 6.20204 2.11206 6.1966Z" fill="url(#paint3_linear_221_349)"/>
<path d="M2.01443 8.65414C1.97937 8.4526 1.95949 8.24871 1.95497 8.0442C1.95482 8.03851 1.95466 8.03288 1.95452 8.02717L1.38203e-05 7.85229C2.62025e-06 7.85796 -1.76335e-06 7.86363 6.3665e-07 7.8693V7.8704C6.3665e-07 8.30682 0.0363946 8.71543 0.107126 9.09291C0.108149 9.09838 0.109154 9.10373 0.110192 9.10918L2.01739 8.67046C2.01639 8.66504 2.01541 8.65958 2.01443 8.65414Z" fill="url(#paint4_linear_221_349)"/>
<path d="M2.46037 9.66586C2.24764 9.43366 2.09709 9.09872 2.01793 8.67035C2.01693 8.66493 2.01596 8.65947 2.01498 8.65402L0.107666 9.0928C0.108688 9.09826 0.109694 9.10362 0.110732 9.10907C0.254894 9.86597 0.537621 10.4968 0.942509 10.974C0.946109 10.9782 0.949722 10.9825 0.953347 10.9867L2.47174 9.67809C2.46794 9.67405 2.46413 9.66996 2.46037 9.66586Z" fill="url(#paint5_linear_221_349)"/>
<path d="M8.11009 4.24045C6.96074 6.00337 6.26447 7.1091 6.26447 7.1091C4.73343 9.5091 4.20378 10.047 3.35137 10.047C2.99568 10.047 2.69853 9.92036 2.47088 9.67827C2.46709 9.67423 2.46328 9.67015 2.45952 9.66605L0.94165 10.9742C0.94525 10.9784 0.948863 10.9827 0.952489 10.9869C1.51155 11.6386 2.30067 12.0001 3.27689 12.0001C4.75385 12.0001 5.81609 11.3038 7.70447 8.00289C7.70447 8.00289 8.49167 6.61278 9.0332 5.65521C8.69775 5.11361 8.39248 4.64473 8.11009 4.24045Z" fill="#0082FB"/>
<path d="M10.1587 1.45779C10.1548 1.46191 10.1508 1.46611 10.147 1.47024C9.84514 1.79181 9.55548 2.15092 9.27368 2.53194C9.55805 2.89402 9.8516 3.30035 10.158 3.75432C10.5191 3.19695 10.8562 2.74553 11.1866 2.39954C11.1905 2.39544 11.1943 2.39145 11.1983 2.38738L10.1587 1.45779Z" fill="url(#paint6_linear_221_349)"/>
<path d="M15.7389 1.28493C14.9373 0.475147 13.9816 0 12.9599 0C11.8825 0 10.9763 0.590388 10.1589 1.45774C10.155 1.46185 10.1511 1.46605 10.1472 1.47018L11.1868 2.39948C11.1907 2.39538 11.1946 2.3914 11.1985 2.38732C11.737 1.82723 12.2581 1.54759 12.8357 1.54759H12.8357C13.4575 1.54759 14.0396 1.84028 14.5437 2.35339C14.5476 2.35742 14.5516 2.3614 14.5555 2.36545L15.7508 1.29699C15.7468 1.29294 15.7428 1.28895 15.7389 1.28493Z" fill="#0082FB"/>
<path d="M18.0564 7.59413C18.0115 4.99408 17.1016 2.66967 15.7511 1.297C15.7471 1.29296 15.7431 1.28897 15.7391 1.28494L14.5439 2.35341C14.5479 2.35743 14.5518 2.36142 14.5558 2.36547C15.5717 3.40909 16.2686 5.35027 16.332 7.59357C16.3322 7.59921 16.3323 7.60486 16.3325 7.61051L18.0566 7.61106C18.0565 7.60542 18.0565 7.59978 18.0564 7.59413Z" fill="url(#paint7_linear_221_349)"/>
<path d="M18.0565 7.61097C18.0564 7.60533 18.0563 7.59968 18.0562 7.59403L16.3318 7.59348C16.332 7.59912 16.3322 7.60477 16.3323 7.61042C16.3351 7.71571 16.3365 7.82163 16.3365 7.92819C16.3365 8.53983 16.2452 9.03425 16.0594 9.3912C16.0566 9.3965 16.0538 9.40181 16.051 9.40704L17.3367 10.7441C17.3398 10.7393 17.343 10.7345 17.3461 10.7296C17.8129 10.0094 18.0579 9.00897 18.0579 7.79578C18.0579 7.73402 18.0574 7.67242 18.0565 7.61097Z" fill="url(#paint8_linear_221_349)"/>
<path d="M16.0592 9.39139C16.0565 9.39668 16.0537 9.402 16.0509 9.40723C15.8901 9.70811 15.6606 9.90879 15.3606 9.99655L15.9467 11.8436C16.0243 11.8173 16.0999 11.7877 16.1734 11.7548C16.1953 11.7451 16.2171 11.735 16.2387 11.7247C16.2511 11.7187 16.2635 11.7127 16.2759 11.7065C16.6634 11.5134 16.9909 11.2285 17.2558 10.8614C17.272 10.839 17.288 10.8164 17.3037 10.7934C17.3147 10.7772 17.3257 10.7608 17.3365 10.7443C17.3397 10.7395 17.3428 10.7346 17.346 10.7298L16.0592 9.39139Z" fill="url(#paint9_linear_221_349)"/>
<path d="M14.9876 10.0468C14.7911 10.0468 14.6177 10.0176 14.448 9.94174L13.8479 11.8328C14.1852 11.948 14.545 11.9999 14.9462 11.9999C15.3159 11.9999 15.6553 11.9446 15.9629 11.838L15.377 9.99153C15.2507 10.0294 15.1194 10.048 14.9876 10.0468Z" fill="url(#paint10_linear_221_349)"/>
<path d="M13.7867 9.40006C13.783 9.3958 13.7793 9.3915 13.7756 9.38718L12.3948 10.8233C12.3986 10.8274 12.4025 10.8315 12.4064 10.8356C12.8862 11.3469 13.3443 11.6641 13.8639 11.8382L14.4635 9.94856C14.2445 9.85451 14.0328 9.68404 13.7867 9.40006Z" fill="url(#paint11_linear_221_349)"/>
<path d="M13.7753 9.38717C13.3611 8.9055 12.8487 8.10356 12.0427 6.80676L10.9925 5.0551L10.984 5.04099L9.76538 6.8686L9.77406 6.88321L10.5183 8.13512C11.2396 9.34226 11.8273 10.2156 12.3944 10.8232C12.3983 10.8274 12.4021 10.8315 12.406 10.8356L13.7864 9.40004C13.7827 9.39579 13.779 9.39149 13.7753 9.38717Z" fill="url(#paint12_linear_221_349)"/>
<defs>
<linearGradient id="paint0_linear_221_349" x1="10.1829" y1="6.13987" x2="6.13776" y2="0.839325" gradientUnits="userSpaceOnUse">
<stop offset="0.0006" stop-color="#0867DF"/>
<stop offset="0.4539" stop-color="#0668E1"/>
<stop offset="0.8591" stop-color="#0064E0"/>
</linearGradient>
<linearGradient id="paint1_linear_221_349" x1="2.30801" y1="2.70622" x2="5.08121" y2="0.600832" gradientUnits="userSpaceOnUse">
<stop offset="0.1323" stop-color="#0064DF"/>
<stop offset="0.9988" stop-color="#0064E0"/>
</linearGradient>
<linearGradient id="paint2_linear_221_349" x1="1.13257" y1="5.79572" x2="2.245" y2="2.99539" gradientUnits="userSpaceOnUse">
<stop offset="0.0147" stop-color="#0072EC"/>
<stop offset="0.6881" stop-color="#0064DF"/>
</linearGradient>
<linearGradient id="paint3_linear_221_349" x1="0.981382" y1="7.8188" x2="1.1101" y2="6.10856" gradientUnits="userSpaceOnUse">
<stop offset="0.0731" stop-color="#007CF6"/>
<stop offset="0.9943" stop-color="#0072EC"/>
</linearGradient>
<linearGradient id="paint4_linear_221_349" x1="1.05217" y1="8.74781" x2="0.960096" y2="8.06261" gradientUnits="userSpaceOnUse">
<stop offset="0.0731" stop-color="#007FF9"/>
<stop offset="1" stop-color="#007CF6"/>
</linearGradient>
<linearGradient id="paint5_linear_221_349" x1="0.998665" y1="8.92769" x2="1.57246" y2="10.1447" gradientUnits="userSpaceOnUse">
<stop offset="0.0731" stop-color="#007FF9"/>
<stop offset="1" stop-color="#0082FB"/>
</linearGradient>
<linearGradient id="paint6_linear_221_349" x1="9.81697" y1="3.03915" x2="10.5756" y2="1.99" gradientUnits="userSpaceOnUse">
<stop offset="0.2799" stop-color="#007FF8"/>
<stop offset="0.9141" stop-color="#0082FB"/>
</linearGradient>
<linearGradient id="paint7_linear_221_349" x1="15.585" y1="1.67936" x2="17.172" y2="7.51708" gradientUnits="userSpaceOnUse">
<stop stop-color="#0082FB"/>
<stop offset="0.9995" stop-color="#0081FA"/>
</linearGradient>
<linearGradient id="paint8_linear_221_349" x1="17.555" y1="7.74031" x2="16.5506" y2="9.76986" gradientUnits="userSpaceOnUse">
<stop offset="0.0619" stop-color="#0081FA"/>
<stop offset="1" stop-color="#0080F9"/>
</linearGradient>
<linearGradient id="paint9_linear_221_349" x1="15.7523" y1="10.846" x2="16.6911" y2="10.2066" gradientUnits="userSpaceOnUse">
<stop stop-color="#027AF3"/>
<stop offset="1" stop-color="#0080F9"/>
</linearGradient>
<linearGradient id="paint10_linear_221_349" x1="14.28" y1="10.9708" x2="15.5846" y2="10.9708" gradientUnits="userSpaceOnUse">
<stop stop-color="#0377EF"/>
<stop offset="0.9994" stop-color="#0279F1"/>
</linearGradient>
<linearGradient id="paint11_linear_221_349" x1="13.1457" y1="10.2523" x2="14.0836" y2="10.8041" gradientUnits="userSpaceOnUse">
<stop offset="0.0019" stop-color="#0471E9"/>
<stop offset="1" stop-color="#0377EF"/>
</linearGradient>
<linearGradient id="paint12_linear_221_349" x1="10.2844" y1="6.1836" x2="13.2889" y2="9.96111" gradientUnits="userSpaceOnUse">
<stop offset="0.2765" stop-color="#0867DF"/>
<stop offset="1" stop-color="#0471E9"/>
</linearGradient>
</defs>
</svg>
